<mxfile host="Electron" agent="Mozilla/5.0 (Windows NT 10.0; Win64; x64) AppleWebKit/537.36 (KHTML, like Gecko) draw.io/24.7.17 Chrome/128.0.6613.36 Electron/32.0.1 Safari/537.36" version="24.7.17">
  <diagram name="Page-1" id="-H_mtQnk-PTXWXPvYvuk">
    <mxGraphModel dx="13320" dy="5467" grid="1" gridSize="10" guides="1" tooltips="1" connect="1" arrows="1" fold="1" page="1" pageScale="1" pageWidth="6000" pageHeight="6000" math="0" shadow="0">
      <root>
        <mxCell id="0" />
        <mxCell id="1" parent="0" />
        <mxCell id="In0TQUfnQW2vXfxKNVC4-6" value="" style="rounded=0;whiteSpace=wrap;html=1;container=0;" vertex="1" parent="1">
          <mxGeometry y="770" width="950" height="900" as="geometry" />
        </mxCell>
        <mxCell id="In0TQUfnQW2vXfxKNVC4-40" value="" style="rounded=1;whiteSpace=wrap;html=1;fillColor=#DBCEE0;container=0;" vertex="1" parent="1">
          <mxGeometry x="510" y="1210" width="290" height="340" as="geometry" />
        </mxCell>
        <mxCell id="In0TQUfnQW2vXfxKNVC4-44" style="edgeStyle=orthogonalEdgeStyle;rounded=0;orthogonalLoop=1;jettySize=auto;html=1;entryX=0.342;entryY=1.002;entryDx=0;entryDy=0;entryPerimeter=0;" edge="1" parent="1" source="In0TQUfnQW2vXfxKNVC4-10" target="In0TQUfnQW2vXfxKNVC4-20">
          <mxGeometry relative="1" as="geometry">
            <Array as="points">
              <mxPoint x="880" y="957" />
              <mxPoint x="880" y="1610" />
              <mxPoint x="295" y="1610" />
            </Array>
          </mxGeometry>
        </mxCell>
        <mxCell id="In0TQUfnQW2vXfxKNVC4-10" value="" style="rounded=1;whiteSpace=wrap;html=1;fillColor=#DBCEE0;container=0;" vertex="1" parent="1">
          <mxGeometry x="510" y="793.18" width="280" height="326.82" as="geometry" />
        </mxCell>
        <mxCell id="eYM0LTBjd1gjEZdHAvqP-11" value="" style="group" parent="1" vertex="1" connectable="0">
          <mxGeometry width="370" height="190" as="geometry" />
        </mxCell>
        <mxCell id="eYM0LTBjd1gjEZdHAvqP-9" value="" style="rounded=0;whiteSpace=wrap;html=1;" parent="eYM0LTBjd1gjEZdHAvqP-11" vertex="1">
          <mxGeometry width="370" height="190" as="geometry" />
        </mxCell>
        <mxCell id="eYM0LTBjd1gjEZdHAvqP-5" value="" style="group" parent="eYM0LTBjd1gjEZdHAvqP-11" vertex="1" connectable="0">
          <mxGeometry x="55" y="55" width="260" height="80" as="geometry" />
        </mxCell>
        <mxCell id="eYM0LTBjd1gjEZdHAvqP-1" value="MongoDB" style="shape=cylinder3;whiteSpace=wrap;html=1;boundedLbl=1;backgroundOutline=1;size=15;" parent="eYM0LTBjd1gjEZdHAvqP-5" vertex="1">
          <mxGeometry x="200" width="60" height="80" as="geometry" />
        </mxCell>
        <mxCell id="eYM0LTBjd1gjEZdHAvqP-2" value="pymongo-api" style="rounded=1;whiteSpace=wrap;html=1;" parent="eYM0LTBjd1gjEZdHAvqP-5" vertex="1">
          <mxGeometry y="10" width="120" height="60" as="geometry" />
        </mxCell>
        <mxCell id="eYM0LTBjd1gjEZdHAvqP-3" style="edgeStyle=orthogonalEdgeStyle;rounded=0;orthogonalLoop=1;jettySize=auto;html=1;exitX=1;exitY=0.5;exitDx=0;exitDy=0;entryX=0;entryY=0.5;entryDx=0;entryDy=0;entryPerimeter=0;" parent="eYM0LTBjd1gjEZdHAvqP-5" source="eYM0LTBjd1gjEZdHAvqP-2" target="eYM0LTBjd1gjEZdHAvqP-1" edge="1">
          <mxGeometry relative="1" as="geometry" />
        </mxCell>
        <mxCell id="eYM0LTBjd1gjEZdHAvqP-10" value="&lt;font style=&quot;font-size: 16px;&quot;&gt;&lt;b&gt;1) Initial state&lt;/b&gt;&lt;/font&gt;&lt;div style=&quot;font-size: 16px;&quot;&gt;&lt;br&gt;&lt;/div&gt;" style="text;html=1;align=center;verticalAlign=middle;whiteSpace=wrap;rounded=0;" parent="eYM0LTBjd1gjEZdHAvqP-11" vertex="1">
          <mxGeometry y="14" width="110" height="30" as="geometry" />
        </mxCell>
        <mxCell id="In0TQUfnQW2vXfxKNVC4-5" value="" style="group" vertex="1" connectable="0" parent="1">
          <mxGeometry x="-13.708148148148148" y="241.82" width="703.7081481481481" height="469.99999999999994" as="geometry" />
        </mxCell>
        <mxCell id="eYM0LTBjd1gjEZdHAvqP-63" value="" style="rounded=0;whiteSpace=wrap;html=1;container=0;" parent="In0TQUfnQW2vXfxKNVC4-5" vertex="1">
          <mxGeometry x="13.708148148148148" width="680" height="470" as="geometry" />
        </mxCell>
        <mxCell id="eYM0LTBjd1gjEZdHAvqP-105" value="" style="group" parent="In0TQUfnQW2vXfxKNVC4-5" vertex="1" connectable="0">
          <mxGeometry x="243.70814814814815" y="38.18000000000001" width="460" height="400" as="geometry" />
        </mxCell>
        <mxCell id="eYM0LTBjd1gjEZdHAvqP-62" style="edgeStyle=orthogonalEdgeStyle;rounded=0;orthogonalLoop=1;jettySize=auto;html=1;entryX=0;entryY=0;entryDx=0;entryDy=52.5;entryPerimeter=0;exitX=1.001;exitY=0.445;exitDx=0;exitDy=0;exitPerimeter=0;" parent="eYM0LTBjd1gjEZdHAvqP-105" source="eYM0LTBjd1gjEZdHAvqP-72" target="eYM0LTBjd1gjEZdHAvqP-45" edge="1">
          <mxGeometry relative="1" as="geometry" />
        </mxCell>
        <mxCell id="eYM0LTBjd1gjEZdHAvqP-46" style="edgeStyle=orthogonalEdgeStyle;rounded=0;orthogonalLoop=1;jettySize=auto;html=1;entryX=0;entryY=0.5;entryDx=0;entryDy=0;entryPerimeter=0;exitX=0.997;exitY=0.434;exitDx=0;exitDy=0;exitPerimeter=0;" parent="eYM0LTBjd1gjEZdHAvqP-105" source="eYM0LTBjd1gjEZdHAvqP-72" target="eYM0LTBjd1gjEZdHAvqP-43" edge="1">
          <mxGeometry relative="1" as="geometry">
            <mxPoint x="130" y="190" as="sourcePoint" />
            <mxPoint x="30" y="220" as="targetPoint" />
          </mxGeometry>
        </mxCell>
        <mxCell id="eYM0LTBjd1gjEZdHAvqP-41" value="" style="rounded=1;whiteSpace=wrap;html=1;fillColor=#DBCEE0;container=0;" parent="eYM0LTBjd1gjEZdHAvqP-105" vertex="1">
          <mxGeometry x="-10" width="430" height="400" as="geometry" />
        </mxCell>
        <mxCell id="eYM0LTBjd1gjEZdHAvqP-42" value="&lt;b&gt;DB Cluster&lt;/b&gt;" style="text;html=1;align=center;verticalAlign=middle;whiteSpace=wrap;rounded=0;container=0;" parent="eYM0LTBjd1gjEZdHAvqP-105" vertex="1">
          <mxGeometry x="9.997241379310339" y="10.004705882352937" width="121.37931034482757" height="25.147058823529413" as="geometry" />
        </mxCell>
        <mxCell id="In0TQUfnQW2vXfxKNVC4-2" style="edgeStyle=orthogonalEdgeStyle;rounded=0;orthogonalLoop=1;jettySize=auto;html=1;" edge="1" parent="eYM0LTBjd1gjEZdHAvqP-105" source="eYM0LTBjd1gjEZdHAvqP-45" target="In0TQUfnQW2vXfxKNVC4-1">
          <mxGeometry relative="1" as="geometry">
            <Array as="points">
              <mxPoint x="340" y="225" />
              <mxPoint x="340" y="310" />
            </Array>
          </mxGeometry>
        </mxCell>
        <mxCell id="eYM0LTBjd1gjEZdHAvqP-45" value="MongoDB&lt;div&gt;Shard 2&lt;/div&gt;&lt;div&gt;(shard-2)&lt;/div&gt;" style="shape=cylinder3;whiteSpace=wrap;html=1;boundedLbl=1;backgroundOutline=1;size=15;container=0;" parent="eYM0LTBjd1gjEZdHAvqP-105" vertex="1">
          <mxGeometry x="250" y="170" width="70" height="110" as="geometry" />
        </mxCell>
        <mxCell id="In0TQUfnQW2vXfxKNVC4-3" style="edgeStyle=orthogonalEdgeStyle;rounded=0;orthogonalLoop=1;jettySize=auto;html=1;entryX=1;entryY=0.75;entryDx=0;entryDy=0;" edge="1" parent="eYM0LTBjd1gjEZdHAvqP-105" source="eYM0LTBjd1gjEZdHAvqP-43" target="In0TQUfnQW2vXfxKNVC4-1">
          <mxGeometry relative="1" as="geometry">
            <Array as="points">
              <mxPoint x="370" y="85" />
              <mxPoint x="370" y="358" />
              <mxPoint x="239" y="358" />
            </Array>
          </mxGeometry>
        </mxCell>
        <mxCell id="eYM0LTBjd1gjEZdHAvqP-43" value="MongoDB&lt;br&gt;Shard 1&lt;br&gt;(shard-1)" style="shape=cylinder3;whiteSpace=wrap;html=1;boundedLbl=1;backgroundOutline=1;size=15;container=0;" parent="eYM0LTBjd1gjEZdHAvqP-105" vertex="1">
          <mxGeometry x="250" y="35.14999999999998" width="70" height="100" as="geometry" />
        </mxCell>
        <mxCell id="eYM0LTBjd1gjEZdHAvqP-72" value="Mongo router" style="rounded=1;whiteSpace=wrap;html=1;container=0;" parent="eYM0LTBjd1gjEZdHAvqP-105" vertex="1">
          <mxGeometry x="10" y="120" width="160" height="80" as="geometry" />
        </mxCell>
        <mxCell id="eYM0LTBjd1gjEZdHAvqP-103" style="edgeStyle=orthogonalEdgeStyle;rounded=0;orthogonalLoop=1;jettySize=auto;html=1;entryX=0;entryY=0;entryDx=0;entryDy=67.5;entryPerimeter=0;" parent="eYM0LTBjd1gjEZdHAvqP-105" source="eYM0LTBjd1gjEZdHAvqP-72" target="eYM0LTBjd1gjEZdHAvqP-43" edge="1">
          <mxGeometry relative="1" as="geometry" />
        </mxCell>
        <mxCell id="eYM0LTBjd1gjEZdHAvqP-104" style="edgeStyle=orthogonalEdgeStyle;rounded=0;orthogonalLoop=1;jettySize=auto;html=1;entryX=0;entryY=0.5;entryDx=0;entryDy=0;entryPerimeter=0;" parent="eYM0LTBjd1gjEZdHAvqP-105" source="eYM0LTBjd1gjEZdHAvqP-72" target="eYM0LTBjd1gjEZdHAvqP-45" edge="1">
          <mxGeometry relative="1" as="geometry" />
        </mxCell>
        <mxCell id="In0TQUfnQW2vXfxKNVC4-4" style="edgeStyle=orthogonalEdgeStyle;rounded=0;orthogonalLoop=1;jettySize=auto;html=1;entryX=0.5;entryY=1;entryDx=0;entryDy=0;" edge="1" parent="eYM0LTBjd1gjEZdHAvqP-105" source="In0TQUfnQW2vXfxKNVC4-1" target="eYM0LTBjd1gjEZdHAvqP-72">
          <mxGeometry relative="1" as="geometry" />
        </mxCell>
        <mxCell id="In0TQUfnQW2vXfxKNVC4-1" value="&lt;span style=&quot;color: rgba(0, 0, 0, 0.85); font-family: Menlo, &amp;quot;Ubuntu Mono&amp;quot;, consolas, source-code-pro, monospace; font-size: 14px; text-align: start; white-space: pre; background-color: rgb(245, 245, 245);&quot;&gt;Сервер конфигурации&lt;/span&gt;&lt;div&gt;&lt;span style=&quot;color: rgba(0, 0, 0, 0.85); font-family: Menlo, &amp;quot;Ubuntu Mono&amp;quot;, consolas, source-code-pro, monospace; font-size: 14px; text-align: start; white-space: pre; background-color: rgb(245, 245, 245);&quot;&gt;(configSrv)&lt;/span&gt;&lt;/div&gt;" style="rounded=1;whiteSpace=wrap;html=1;" vertex="1" parent="eYM0LTBjd1gjEZdHAvqP-105">
          <mxGeometry x="10" y="290" width="160" height="60" as="geometry" />
        </mxCell>
        <mxCell id="eYM0LTBjd1gjEZdHAvqP-73" style="edgeStyle=orthogonalEdgeStyle;rounded=0;orthogonalLoop=1;jettySize=auto;html=1;" parent="In0TQUfnQW2vXfxKNVC4-5" source="eYM0LTBjd1gjEZdHAvqP-44" target="eYM0LTBjd1gjEZdHAvqP-72" edge="1">
          <mxGeometry relative="1" as="geometry" />
        </mxCell>
        <mxCell id="eYM0LTBjd1gjEZdHAvqP-71" value="&lt;font style=&quot;forced-color-adjust: none; font-size: 16px;&quot;&gt;&lt;b style=&quot;forced-color-adjust: none;&quot;&gt;2) Sharding state&lt;/b&gt;&lt;/font&gt;" style="text;html=1;align=center;verticalAlign=middle;whiteSpace=wrap;rounded=0;container=0;" parent="In0TQUfnQW2vXfxKNVC4-5" vertex="1">
          <mxGeometry y="0.0012727272727204308" width="205.55555555555557" height="38.18181818181818" as="geometry" />
        </mxCell>
        <mxCell id="eYM0LTBjd1gjEZdHAvqP-44" value="pymongo-api" style="rounded=1;whiteSpace=wrap;html=1;container=0;" parent="In0TQUfnQW2vXfxKNVC4-5" vertex="1">
          <mxGeometry x="41.11555555555556" y="159.99563636363627" width="164.44444444444446" height="76.36363636363636" as="geometry" />
        </mxCell>
        <mxCell id="In0TQUfnQW2vXfxKNVC4-21" style="edgeStyle=orthogonalEdgeStyle;rounded=0;orthogonalLoop=1;jettySize=auto;html=1;" edge="1" parent="1" source="In0TQUfnQW2vXfxKNVC4-23" target="In0TQUfnQW2vXfxKNVC4-16">
          <mxGeometry relative="1" as="geometry" />
        </mxCell>
        <mxCell id="In0TQUfnQW2vXfxKNVC4-22" value="&lt;b style=&quot;font-size: 16px;&quot;&gt;3) Replicated state&lt;/b&gt;" style="text;html=1;align=center;verticalAlign=middle;whiteSpace=wrap;rounded=0;container=0;" vertex="1" parent="1">
          <mxGeometry x="0.0018518518518524374" y="770.0012727272726" width="205.55555555555557" height="38.18181818181818" as="geometry" />
        </mxCell>
        <mxCell id="In0TQUfnQW2vXfxKNVC4-23" value="pymongo-api" style="rounded=1;whiteSpace=wrap;html=1;container=0;" vertex="1" parent="1">
          <mxGeometry x="29.997407407407408" y="1171.8156363636363" width="164.44444444444446" height="76.36363636363636" as="geometry" />
        </mxCell>
        <mxCell id="In0TQUfnQW2vXfxKNVC4-25" value="Replica 1&lt;div&gt;(shard-1-1)&lt;/div&gt;" style="shape=cylinder3;whiteSpace=wrap;html=1;boundedLbl=1;backgroundOutline=1;size=15;" vertex="1" parent="1">
          <mxGeometry x="680" y="808.18" width="70" height="90" as="geometry" />
        </mxCell>
        <mxCell id="In0TQUfnQW2vXfxKNVC4-26" value="Replica 2&lt;div&gt;(shard-1-2)&lt;/div&gt;" style="shape=cylinder3;whiteSpace=wrap;html=1;boundedLbl=1;backgroundOutline=1;size=15;" vertex="1" parent="1">
          <mxGeometry x="680" y="908.18" width="70" height="90" as="geometry" />
        </mxCell>
        <mxCell id="In0TQUfnQW2vXfxKNVC4-27" value="Replica 3&lt;div&gt;(shard-1-3)&lt;/div&gt;" style="shape=cylinder3;whiteSpace=wrap;html=1;boundedLbl=1;backgroundOutline=1;size=15;" vertex="1" parent="1">
          <mxGeometry x="680" y="1008.18" width="70" height="90" as="geometry" />
        </mxCell>
        <mxCell id="In0TQUfnQW2vXfxKNVC4-8" style="edgeStyle=orthogonalEdgeStyle;rounded=0;orthogonalLoop=1;jettySize=auto;html=1;exitX=1.001;exitY=0.445;exitDx=0;exitDy=0;exitPerimeter=0;" edge="1" parent="1" target="In0TQUfnQW2vXfxKNVC4-40">
          <mxGeometry relative="1" as="geometry">
            <mxPoint x="395.15999999999894" y="1205.6000000000001" as="sourcePoint" />
            <mxPoint x="505" y="1393" as="targetPoint" />
            <Array as="points">
              <mxPoint x="455" y="1206" />
              <mxPoint x="455" y="1393" />
            </Array>
          </mxGeometry>
        </mxCell>
        <mxCell id="In0TQUfnQW2vXfxKNVC4-9" style="edgeStyle=orthogonalEdgeStyle;rounded=0;orthogonalLoop=1;jettySize=auto;html=1;exitX=0.997;exitY=0.434;exitDx=0;exitDy=0;exitPerimeter=0;entryX=-0.001;entryY=0.534;entryDx=0;entryDy=0;entryPerimeter=0;" edge="1" parent="1" source="In0TQUfnQW2vXfxKNVC4-16" target="In0TQUfnQW2vXfxKNVC4-10">
          <mxGeometry relative="1" as="geometry">
            <mxPoint x="373.71000000000004" y="998.18" as="sourcePoint" />
            <mxPoint x="510" y="958" as="targetPoint" />
            <Array as="points" />
          </mxGeometry>
        </mxCell>
        <mxCell id="In0TQUfnQW2vXfxKNVC4-13" value="MongoDB&lt;div&gt;Shard 2&lt;/div&gt;&lt;div&gt;(shard-2)&lt;/div&gt;" style="shape=cylinder3;whiteSpace=wrap;html=1;boundedLbl=1;backgroundOutline=1;size=15;container=0;" vertex="1" parent="1">
          <mxGeometry x="530" y="1340" width="70" height="110" as="geometry" />
        </mxCell>
        <mxCell id="In0TQUfnQW2vXfxKNVC4-15" value="MongoDB&lt;br&gt;Shard 1&lt;br&gt;(shard-1)" style="shape=cylinder3;whiteSpace=wrap;html=1;boundedLbl=1;backgroundOutline=1;size=15;container=0;" vertex="1" parent="1">
          <mxGeometry x="530" y="908.1799999999998" width="70" height="100" as="geometry" />
        </mxCell>
        <mxCell id="In0TQUfnQW2vXfxKNVC4-16" value="Mongo router" style="rounded=1;whiteSpace=wrap;html=1;container=0;" vertex="1" parent="1">
          <mxGeometry x="240" y="1170" width="160" height="80" as="geometry" />
        </mxCell>
        <mxCell id="In0TQUfnQW2vXfxKNVC4-19" style="edgeStyle=orthogonalEdgeStyle;rounded=0;orthogonalLoop=1;jettySize=auto;html=1;entryX=0.5;entryY=1;entryDx=0;entryDy=0;" edge="1" parent="1" source="In0TQUfnQW2vXfxKNVC4-20" target="In0TQUfnQW2vXfxKNVC4-16">
          <mxGeometry relative="1" as="geometry" />
        </mxCell>
        <mxCell id="In0TQUfnQW2vXfxKNVC4-20" value="&lt;span style=&quot;color: rgba(0, 0, 0, 0.85); font-family: Menlo, &amp;quot;Ubuntu Mono&amp;quot;, consolas, source-code-pro, monospace; font-size: 14px; text-align: start; white-space: pre; background-color: rgb(245, 245, 245);&quot;&gt;Сервер конфигурации&lt;/span&gt;&lt;div&gt;&lt;span style=&quot;color: rgba(0, 0, 0, 0.85); font-family: Menlo, &amp;quot;Ubuntu Mono&amp;quot;, consolas, source-code-pro, monospace; font-size: 14px; text-align: start; white-space: pre; background-color: rgb(245, 245, 245);&quot;&gt;(configSrv)&lt;/span&gt;&lt;/div&gt;" style="rounded=1;whiteSpace=wrap;html=1;" vertex="1" parent="1">
          <mxGeometry x="240" y="1349.9999999999998" width="160" height="60" as="geometry" />
        </mxCell>
        <mxCell id="In0TQUfnQW2vXfxKNVC4-31" value="Replica 1&lt;br&gt;(shard-2-1)" style="shape=cylinder3;whiteSpace=wrap;html=1;boundedLbl=1;backgroundOutline=1;size=15;" vertex="1" parent="1">
          <mxGeometry x="670" y="1235" width="70" height="90" as="geometry" />
        </mxCell>
        <mxCell id="In0TQUfnQW2vXfxKNVC4-32" value="Replica 2&lt;div&gt;(shard-2-2)&lt;/div&gt;" style="shape=cylinder3;whiteSpace=wrap;html=1;boundedLbl=1;backgroundOutline=1;size=15;" vertex="1" parent="1">
          <mxGeometry x="670" y="1335" width="70" height="90" as="geometry" />
        </mxCell>
        <mxCell id="In0TQUfnQW2vXfxKNVC4-33" value="Replica 3&lt;div&gt;(shard-2-3)&lt;/div&gt;" style="shape=cylinder3;whiteSpace=wrap;html=1;boundedLbl=1;backgroundOutline=1;size=15;" vertex="1" parent="1">
          <mxGeometry x="670" y="1435" width="70" height="90" as="geometry" />
        </mxCell>
        <mxCell id="In0TQUfnQW2vXfxKNVC4-34" style="edgeStyle=orthogonalEdgeStyle;rounded=0;orthogonalLoop=1;jettySize=auto;html=1;entryX=0.025;entryY=0.56;entryDx=0;entryDy=0;entryPerimeter=0;" edge="1" parent="1" source="In0TQUfnQW2vXfxKNVC4-15" target="In0TQUfnQW2vXfxKNVC4-26">
          <mxGeometry relative="1" as="geometry" />
        </mxCell>
        <mxCell id="In0TQUfnQW2vXfxKNVC4-35" style="edgeStyle=orthogonalEdgeStyle;rounded=0;orthogonalLoop=1;jettySize=auto;html=1;entryX=0;entryY=0.5;entryDx=0;entryDy=0;entryPerimeter=0;strokeColor=default;shadow=0;" edge="1" parent="1" source="In0TQUfnQW2vXfxKNVC4-15" target="In0TQUfnQW2vXfxKNVC4-25">
          <mxGeometry relative="1" as="geometry" />
        </mxCell>
        <mxCell id="In0TQUfnQW2vXfxKNVC4-36" style="edgeStyle=orthogonalEdgeStyle;rounded=0;orthogonalLoop=1;jettySize=auto;html=1;entryX=0.039;entryY=0.56;entryDx=0;entryDy=0;entryPerimeter=0;" edge="1" parent="1" source="In0TQUfnQW2vXfxKNVC4-15" target="In0TQUfnQW2vXfxKNVC4-27">
          <mxGeometry relative="1" as="geometry" />
        </mxCell>
        <mxCell id="In0TQUfnQW2vXfxKNVC4-37" style="edgeStyle=orthogonalEdgeStyle;rounded=0;orthogonalLoop=1;jettySize=auto;html=1;entryX=0;entryY=0.5;entryDx=0;entryDy=0;entryPerimeter=0;" edge="1" parent="1" source="In0TQUfnQW2vXfxKNVC4-13" target="In0TQUfnQW2vXfxKNVC4-31">
          <mxGeometry relative="1" as="geometry" />
        </mxCell>
        <mxCell id="In0TQUfnQW2vXfxKNVC4-38" style="edgeStyle=orthogonalEdgeStyle;rounded=0;orthogonalLoop=1;jettySize=auto;html=1;entryX=0;entryY=0;entryDx=0;entryDy=60;entryPerimeter=0;" edge="1" parent="1" source="In0TQUfnQW2vXfxKNVC4-13" target="In0TQUfnQW2vXfxKNVC4-32">
          <mxGeometry relative="1" as="geometry" />
        </mxCell>
        <mxCell id="In0TQUfnQW2vXfxKNVC4-39" style="edgeStyle=orthogonalEdgeStyle;rounded=0;orthogonalLoop=1;jettySize=auto;html=1;entryX=0.005;entryY=0.619;entryDx=0;entryDy=0;entryPerimeter=0;" edge="1" parent="1" source="In0TQUfnQW2vXfxKNVC4-13" target="In0TQUfnQW2vXfxKNVC4-33">
          <mxGeometry relative="1" as="geometry" />
        </mxCell>
        <mxCell id="In0TQUfnQW2vXfxKNVC4-42" value="Replica set 1" style="text;html=1;align=center;verticalAlign=middle;whiteSpace=wrap;rounded=0;" vertex="1" parent="1">
          <mxGeometry x="530" y="808.1800000000001" width="90" height="30" as="geometry" />
        </mxCell>
        <mxCell id="In0TQUfnQW2vXfxKNVC4-43" value="Replica set 2" style="text;html=1;align=center;verticalAlign=middle;whiteSpace=wrap;rounded=0;" vertex="1" parent="1">
          <mxGeometry x="530" y="1235" width="90" height="30" as="geometry" />
        </mxCell>
        <mxCell id="In0TQUfnQW2vXfxKNVC4-45" style="edgeStyle=orthogonalEdgeStyle;rounded=0;orthogonalLoop=1;jettySize=auto;html=1;" edge="1" parent="1" source="In0TQUfnQW2vXfxKNVC4-40">
          <mxGeometry relative="1" as="geometry">
            <mxPoint x="350" y="1410" as="targetPoint" />
            <Array as="points">
              <mxPoint x="830" y="1390" />
              <mxPoint x="830" y="1580" />
              <mxPoint x="350" y="1580" />
              <mxPoint x="350" y="1410" />
            </Array>
          </mxGeometry>
        </mxCell>
        <mxCell id="In0TQUfnQW2vXfxKNVC4-108" value="" style="group" vertex="1" connectable="0" parent="1">
          <mxGeometry x="-5" y="1730" width="938.15" height="900" as="geometry" />
        </mxCell>
        <mxCell id="In0TQUfnQW2vXfxKNVC4-46" value="" style="rounded=0;whiteSpace=wrap;html=1;container=0;" vertex="1" parent="In0TQUfnQW2vXfxKNVC4-108">
          <mxGeometry x="4.998148148148145" y="-10" width="939.44" height="900" as="geometry" />
        </mxCell>
        <mxCell id="In0TQUfnQW2vXfxKNVC4-47" value="" style="rounded=1;whiteSpace=wrap;html=1;fillColor=#DBCEE0;container=0;" vertex="1" parent="In0TQUfnQW2vXfxKNVC4-108">
          <mxGeometry x="509.9981481481482" y="440" width="290" height="340" as="geometry" />
        </mxCell>
        <mxCell id="In0TQUfnQW2vXfxKNVC4-48" style="edgeStyle=orthogonalEdgeStyle;rounded=0;orthogonalLoop=1;jettySize=auto;html=1;entryX=0.342;entryY=1.002;entryDx=0;entryDy=0;entryPerimeter=0;" edge="1" parent="In0TQUfnQW2vXfxKNVC4-108" source="In0TQUfnQW2vXfxKNVC4-49" target="In0TQUfnQW2vXfxKNVC4-62">
          <mxGeometry relative="1" as="geometry">
            <Array as="points">
              <mxPoint x="879.9981481481482" y="187" />
              <mxPoint x="879.9981481481482" y="840" />
              <mxPoint x="294.9981481481482" y="840" />
            </Array>
          </mxGeometry>
        </mxCell>
        <mxCell id="In0TQUfnQW2vXfxKNVC4-49" value="" style="rounded=1;whiteSpace=wrap;html=1;fillColor=#DBCEE0;container=0;" vertex="1" parent="In0TQUfnQW2vXfxKNVC4-108">
          <mxGeometry x="509.9981481481482" y="23.179999999999836" width="280" height="326.82" as="geometry" />
        </mxCell>
        <mxCell id="In0TQUfnQW2vXfxKNVC4-50" style="edgeStyle=orthogonalEdgeStyle;rounded=0;orthogonalLoop=1;jettySize=auto;html=1;" edge="1" parent="In0TQUfnQW2vXfxKNVC4-108" source="In0TQUfnQW2vXfxKNVC4-52" target="In0TQUfnQW2vXfxKNVC4-60">
          <mxGeometry relative="1" as="geometry">
            <Array as="points">
              <mxPoint x="263.14814814814815" y="338" />
            </Array>
          </mxGeometry>
        </mxCell>
        <mxCell id="In0TQUfnQW2vXfxKNVC4-51" value="&lt;b style=&quot;font-size: 16px;&quot;&gt;4) Cached state&lt;/b&gt;" style="text;html=1;align=center;verticalAlign=middle;whiteSpace=wrap;rounded=0;container=0;" vertex="1" parent="In0TQUfnQW2vXfxKNVC4-108">
          <mxGeometry y="0.0012727272726351657" width="205.55555555555557" height="38.18181818181818" as="geometry" />
        </mxCell>
        <mxCell id="In0TQUfnQW2vXfxKNVC4-76" style="edgeStyle=orthogonalEdgeStyle;rounded=0;orthogonalLoop=1;jettySize=auto;html=1;entryX=0.5;entryY=1;entryDx=0;entryDy=0;" edge="1" parent="In0TQUfnQW2vXfxKNVC4-108" source="In0TQUfnQW2vXfxKNVC4-52" target="In0TQUfnQW2vXfxKNVC4-75">
          <mxGeometry relative="1" as="geometry">
            <Array as="points">
              <mxPoint x="263.14814814814815" y="338" />
            </Array>
          </mxGeometry>
        </mxCell>
        <mxCell id="In0TQUfnQW2vXfxKNVC4-52" value="pymongo-api" style="rounded=1;whiteSpace=wrap;html=1;container=0;" vertex="1" parent="In0TQUfnQW2vXfxKNVC4-108">
          <mxGeometry x="41.11555555555555" y="299.9956363636361" width="164.44444444444446" height="76.36363636363636" as="geometry" />
        </mxCell>
        <mxCell id="In0TQUfnQW2vXfxKNVC4-53" value="Replica 1&lt;div&gt;(shard-1-1)&lt;/div&gt;" style="shape=cylinder3;whiteSpace=wrap;html=1;boundedLbl=1;backgroundOutline=1;size=15;" vertex="1" parent="In0TQUfnQW2vXfxKNVC4-108">
          <mxGeometry x="679.9981481481482" y="38.179999999999836" width="70" height="90" as="geometry" />
        </mxCell>
        <mxCell id="In0TQUfnQW2vXfxKNVC4-54" value="Replica 2&lt;div&gt;(shard-1-2)&lt;/div&gt;" style="shape=cylinder3;whiteSpace=wrap;html=1;boundedLbl=1;backgroundOutline=1;size=15;" vertex="1" parent="In0TQUfnQW2vXfxKNVC4-108">
          <mxGeometry x="679.9981481481482" y="138.17999999999984" width="70" height="90" as="geometry" />
        </mxCell>
        <mxCell id="In0TQUfnQW2vXfxKNVC4-55" value="Replica 3&lt;div&gt;(shard-1-3)&lt;/div&gt;" style="shape=cylinder3;whiteSpace=wrap;html=1;boundedLbl=1;backgroundOutline=1;size=15;" vertex="1" parent="In0TQUfnQW2vXfxKNVC4-108">
          <mxGeometry x="679.9981481481482" y="238.17999999999984" width="70" height="90" as="geometry" />
        </mxCell>
        <mxCell id="In0TQUfnQW2vXfxKNVC4-56" style="edgeStyle=orthogonalEdgeStyle;rounded=0;orthogonalLoop=1;jettySize=auto;html=1;exitX=1.001;exitY=0.445;exitDx=0;exitDy=0;exitPerimeter=0;" edge="1" parent="In0TQUfnQW2vXfxKNVC4-108" target="In0TQUfnQW2vXfxKNVC4-47">
          <mxGeometry relative="1" as="geometry">
            <mxPoint x="395.1581481481471" y="435.60000000000036" as="sourcePoint" />
            <mxPoint x="504.9981481481482" y="623" as="targetPoint" />
            <Array as="points">
              <mxPoint x="454.9981481481482" y="436" />
              <mxPoint x="454.9981481481482" y="623" />
            </Array>
          </mxGeometry>
        </mxCell>
        <mxCell id="In0TQUfnQW2vXfxKNVC4-57" style="edgeStyle=orthogonalEdgeStyle;rounded=0;orthogonalLoop=1;jettySize=auto;html=1;exitX=0.997;exitY=0.434;exitDx=0;exitDy=0;exitPerimeter=0;entryX=-0.001;entryY=0.534;entryDx=0;entryDy=0;entryPerimeter=0;" edge="1" parent="In0TQUfnQW2vXfxKNVC4-108" source="In0TQUfnQW2vXfxKNVC4-60" target="In0TQUfnQW2vXfxKNVC4-49">
          <mxGeometry relative="1" as="geometry">
            <mxPoint x="373.7081481481482" y="228.17999999999984" as="sourcePoint" />
            <mxPoint x="509.9981481481482" y="188" as="targetPoint" />
            <Array as="points" />
          </mxGeometry>
        </mxCell>
        <mxCell id="In0TQUfnQW2vXfxKNVC4-58" value="MongoDB&lt;div&gt;Shard 2&lt;/div&gt;&lt;div&gt;(shard-2)&lt;/div&gt;" style="shape=cylinder3;whiteSpace=wrap;html=1;boundedLbl=1;backgroundOutline=1;size=15;container=0;" vertex="1" parent="In0TQUfnQW2vXfxKNVC4-108">
          <mxGeometry x="529.9981481481482" y="570" width="70" height="110" as="geometry" />
        </mxCell>
        <mxCell id="In0TQUfnQW2vXfxKNVC4-59" value="MongoDB&lt;br&gt;Shard 1&lt;br&gt;(shard-1)" style="shape=cylinder3;whiteSpace=wrap;html=1;boundedLbl=1;backgroundOutline=1;size=15;container=0;" vertex="1" parent="In0TQUfnQW2vXfxKNVC4-108">
          <mxGeometry x="529.9981481481482" y="138.17999999999984" width="70" height="100" as="geometry" />
        </mxCell>
        <mxCell id="In0TQUfnQW2vXfxKNVC4-60" value="Mongo router" style="rounded=1;whiteSpace=wrap;html=1;container=0;" vertex="1" parent="In0TQUfnQW2vXfxKNVC4-108">
          <mxGeometry x="239.99814814814815" y="400" width="160" height="80" as="geometry" />
        </mxCell>
        <mxCell id="In0TQUfnQW2vXfxKNVC4-61" style="edgeStyle=orthogonalEdgeStyle;rounded=0;orthogonalLoop=1;jettySize=auto;html=1;entryX=0.5;entryY=1;entryDx=0;entryDy=0;" edge="1" parent="In0TQUfnQW2vXfxKNVC4-108" source="In0TQUfnQW2vXfxKNVC4-62" target="In0TQUfnQW2vXfxKNVC4-60">
          <mxGeometry relative="1" as="geometry" />
        </mxCell>
        <mxCell id="In0TQUfnQW2vXfxKNVC4-62" value="&lt;span style=&quot;color: rgba(0, 0, 0, 0.85); font-family: Menlo, &amp;quot;Ubuntu Mono&amp;quot;, consolas, source-code-pro, monospace; font-size: 14px; text-align: start; white-space: pre; background-color: rgb(245, 245, 245);&quot;&gt;Сервер конфигурации&lt;/span&gt;&lt;div&gt;&lt;span style=&quot;color: rgba(0, 0, 0, 0.85); font-family: Menlo, &amp;quot;Ubuntu Mono&amp;quot;, consolas, source-code-pro, monospace; font-size: 14px; text-align: start; white-space: pre; background-color: rgb(245, 245, 245);&quot;&gt;(configSrv)&lt;/span&gt;&lt;/div&gt;" style="rounded=1;whiteSpace=wrap;html=1;" vertex="1" parent="In0TQUfnQW2vXfxKNVC4-108">
          <mxGeometry x="239.99814814814815" y="580" width="160" height="60" as="geometry" />
        </mxCell>
        <mxCell id="In0TQUfnQW2vXfxKNVC4-63" value="Replica 1&lt;br&gt;(shard-2-1)" style="shape=cylinder3;whiteSpace=wrap;html=1;boundedLbl=1;backgroundOutline=1;size=15;" vertex="1" parent="In0TQUfnQW2vXfxKNVC4-108">
          <mxGeometry x="669.9981481481482" y="465" width="70" height="90" as="geometry" />
        </mxCell>
        <mxCell id="In0TQUfnQW2vXfxKNVC4-64" value="Replica 2&lt;div&gt;(shard-2-2)&lt;/div&gt;" style="shape=cylinder3;whiteSpace=wrap;html=1;boundedLbl=1;backgroundOutline=1;size=15;" vertex="1" parent="In0TQUfnQW2vXfxKNVC4-108">
          <mxGeometry x="669.9981481481482" y="565" width="70" height="90" as="geometry" />
        </mxCell>
        <mxCell id="In0TQUfnQW2vXfxKNVC4-65" value="Replica 3&lt;div&gt;(shard-2-3)&lt;/div&gt;" style="shape=cylinder3;whiteSpace=wrap;html=1;boundedLbl=1;backgroundOutline=1;size=15;" vertex="1" parent="In0TQUfnQW2vXfxKNVC4-108">
          <mxGeometry x="669.9981481481482" y="665" width="70" height="90" as="geometry" />
        </mxCell>
        <mxCell id="In0TQUfnQW2vXfxKNVC4-66" style="edgeStyle=orthogonalEdgeStyle;rounded=0;orthogonalLoop=1;jettySize=auto;html=1;entryX=0.025;entryY=0.56;entryDx=0;entryDy=0;entryPerimeter=0;" edge="1" parent="In0TQUfnQW2vXfxKNVC4-108" source="In0TQUfnQW2vXfxKNVC4-59" target="In0TQUfnQW2vXfxKNVC4-54">
          <mxGeometry relative="1" as="geometry" />
        </mxCell>
        <mxCell id="In0TQUfnQW2vXfxKNVC4-67" style="edgeStyle=orthogonalEdgeStyle;rounded=0;orthogonalLoop=1;jettySize=auto;html=1;entryX=0;entryY=0.5;entryDx=0;entryDy=0;entryPerimeter=0;strokeColor=default;shadow=0;" edge="1" parent="In0TQUfnQW2vXfxKNVC4-108" source="In0TQUfnQW2vXfxKNVC4-59" target="In0TQUfnQW2vXfxKNVC4-53">
          <mxGeometry relative="1" as="geometry" />
        </mxCell>
        <mxCell id="In0TQUfnQW2vXfxKNVC4-68" style="edgeStyle=orthogonalEdgeStyle;rounded=0;orthogonalLoop=1;jettySize=auto;html=1;entryX=0.039;entryY=0.56;entryDx=0;entryDy=0;entryPerimeter=0;" edge="1" parent="In0TQUfnQW2vXfxKNVC4-108" source="In0TQUfnQW2vXfxKNVC4-59" target="In0TQUfnQW2vXfxKNVC4-55">
          <mxGeometry relative="1" as="geometry" />
        </mxCell>
        <mxCell id="In0TQUfnQW2vXfxKNVC4-69" style="edgeStyle=orthogonalEdgeStyle;rounded=0;orthogonalLoop=1;jettySize=auto;html=1;entryX=0;entryY=0.5;entryDx=0;entryDy=0;entryPerimeter=0;" edge="1" parent="In0TQUfnQW2vXfxKNVC4-108" source="In0TQUfnQW2vXfxKNVC4-58" target="In0TQUfnQW2vXfxKNVC4-63">
          <mxGeometry relative="1" as="geometry" />
        </mxCell>
        <mxCell id="In0TQUfnQW2vXfxKNVC4-70" style="edgeStyle=orthogonalEdgeStyle;rounded=0;orthogonalLoop=1;jettySize=auto;html=1;entryX=0;entryY=0;entryDx=0;entryDy=60;entryPerimeter=0;" edge="1" parent="In0TQUfnQW2vXfxKNVC4-108" source="In0TQUfnQW2vXfxKNVC4-58" target="In0TQUfnQW2vXfxKNVC4-64">
          <mxGeometry relative="1" as="geometry" />
        </mxCell>
        <mxCell id="In0TQUfnQW2vXfxKNVC4-71" style="edgeStyle=orthogonalEdgeStyle;rounded=0;orthogonalLoop=1;jettySize=auto;html=1;entryX=0.005;entryY=0.619;entryDx=0;entryDy=0;entryPerimeter=0;" edge="1" parent="In0TQUfnQW2vXfxKNVC4-108" source="In0TQUfnQW2vXfxKNVC4-58" target="In0TQUfnQW2vXfxKNVC4-65">
          <mxGeometry relative="1" as="geometry" />
        </mxCell>
        <mxCell id="In0TQUfnQW2vXfxKNVC4-72" value="Replica set 1" style="text;html=1;align=center;verticalAlign=middle;whiteSpace=wrap;rounded=0;" vertex="1" parent="In0TQUfnQW2vXfxKNVC4-108">
          <mxGeometry x="529.9981481481482" y="38.180000000000064" width="90" height="30" as="geometry" />
        </mxCell>
        <mxCell id="In0TQUfnQW2vXfxKNVC4-73" value="Replica set 2" style="text;html=1;align=center;verticalAlign=middle;whiteSpace=wrap;rounded=0;" vertex="1" parent="In0TQUfnQW2vXfxKNVC4-108">
          <mxGeometry x="529.9981481481482" y="465" width="90" height="30" as="geometry" />
        </mxCell>
        <mxCell id="In0TQUfnQW2vXfxKNVC4-74" style="edgeStyle=orthogonalEdgeStyle;rounded=0;orthogonalLoop=1;jettySize=auto;html=1;" edge="1" parent="In0TQUfnQW2vXfxKNVC4-108" source="In0TQUfnQW2vXfxKNVC4-47">
          <mxGeometry relative="1" as="geometry">
            <mxPoint x="349.9981481481482" y="640" as="targetPoint" />
            <Array as="points">
              <mxPoint x="829.9981481481482" y="620" />
              <mxPoint x="829.9981481481482" y="810" />
              <mxPoint x="349.9981481481482" y="810" />
              <mxPoint x="349.9981481481482" y="640" />
            </Array>
          </mxGeometry>
        </mxCell>
        <mxCell id="In0TQUfnQW2vXfxKNVC4-75" value="Redis" style="rhombus;whiteSpace=wrap;html=1;container=0;" vertex="1" parent="In0TQUfnQW2vXfxKNVC4-108">
          <mxGeometry x="193.14814814814815" y="98.18000000000006" width="140" height="170" as="geometry" />
        </mxCell>
        <mxCell id="In0TQUfnQW2vXfxKNVC4-221" value="" style="group" vertex="1" connectable="0" parent="1">
          <mxGeometry y="3780" width="2080" height="1200" as="geometry" />
        </mxCell>
        <mxCell id="In0TQUfnQW2vXfxKNVC4-167" value="" style="rounded=0;whiteSpace=wrap;html=1;container=0;" vertex="1" parent="In0TQUfnQW2vXfxKNVC4-221">
          <mxGeometry width="2080" height="960" as="geometry" />
        </mxCell>
        <mxCell id="In0TQUfnQW2vXfxKNVC4-168" style="edgeStyle=orthogonalEdgeStyle;rounded=0;orthogonalLoop=1;jettySize=auto;html=1;entryX=0.342;entryY=1.002;entryDx=0;entryDy=0;entryPerimeter=0;" edge="1" parent="In0TQUfnQW2vXfxKNVC4-221" source="In0TQUfnQW2vXfxKNVC4-187" target="In0TQUfnQW2vXfxKNVC4-178">
          <mxGeometry relative="1" as="geometry">
            <Array as="points">
              <mxPoint x="1790" y="497" />
              <mxPoint x="2010" y="497" />
              <mxPoint x="2010" y="910" />
              <mxPoint x="1175" y="910" />
            </Array>
          </mxGeometry>
        </mxCell>
        <mxCell id="In0TQUfnQW2vXfxKNVC4-169" style="edgeStyle=orthogonalEdgeStyle;rounded=0;orthogonalLoop=1;jettySize=auto;html=1;entryX=0;entryY=0.551;entryDx=0;entryDy=0;entryPerimeter=0;" edge="1" parent="In0TQUfnQW2vXfxKNVC4-221" source="In0TQUfnQW2vXfxKNVC4-172" target="In0TQUfnQW2vXfxKNVC4-182">
          <mxGeometry relative="1" as="geometry">
            <Array as="points" />
          </mxGeometry>
        </mxCell>
        <mxCell id="In0TQUfnQW2vXfxKNVC4-171" style="edgeStyle=orthogonalEdgeStyle;rounded=0;orthogonalLoop=1;jettySize=auto;html=1;entryX=0.5;entryY=1;entryDx=0;entryDy=0;exitX=1;exitY=0.5;exitDx=0;exitDy=0;entryPerimeter=0;" edge="1" parent="In0TQUfnQW2vXfxKNVC4-221" source="In0TQUfnQW2vXfxKNVC4-182" target="In0TQUfnQW2vXfxKNVC4-180">
          <mxGeometry relative="1" as="geometry">
            <Array as="points">
              <mxPoint x="516" y="477" />
              <mxPoint x="516" y="310" />
              <mxPoint x="516" y="310" />
            </Array>
          </mxGeometry>
        </mxCell>
        <mxCell id="In0TQUfnQW2vXfxKNVC4-218" value="" style="edgeStyle=orthogonalEdgeStyle;rounded=0;orthogonalLoop=1;jettySize=auto;html=1;" edge="1" parent="In0TQUfnQW2vXfxKNVC4-221" source="In0TQUfnQW2vXfxKNVC4-172" target="In0TQUfnQW2vXfxKNVC4-214">
          <mxGeometry relative="1" as="geometry" />
        </mxCell>
        <mxCell id="In0TQUfnQW2vXfxKNVC4-172" value="&lt;div&gt;&lt;span style=&quot;background-color: initial;&quot;&gt;NGINX&lt;/span&gt;&lt;br&gt;&lt;/div&gt;" style="rounded=1;whiteSpace=wrap;html=1;container=0;" vertex="1" parent="In0TQUfnQW2vXfxKNVC4-221">
          <mxGeometry x="230" y="455.3599999999997" width="84.44" height="49.01" as="geometry" />
        </mxCell>
        <mxCell id="In0TQUfnQW2vXfxKNVC4-173" style="edgeStyle=orthogonalEdgeStyle;rounded=0;orthogonalLoop=1;jettySize=auto;html=1;exitX=1;exitY=0.5;exitDx=0;exitDy=0;" edge="1" parent="In0TQUfnQW2vXfxKNVC4-221" source="In0TQUfnQW2vXfxKNVC4-175" target="In0TQUfnQW2vXfxKNVC4-197">
          <mxGeometry relative="1" as="geometry">
            <mxPoint x="675.7199999999989" y="745.6000000000004" as="sourcePoint" />
            <mxPoint x="785.5600000000001" y="933" as="targetPoint" />
            <Array as="points">
              <mxPoint x="1480" y="430" />
              <mxPoint x="1480" y="630" />
            </Array>
          </mxGeometry>
        </mxCell>
        <mxCell id="In0TQUfnQW2vXfxKNVC4-174" style="edgeStyle=orthogonalEdgeStyle;rounded=0;orthogonalLoop=1;jettySize=auto;html=1;exitX=0.997;exitY=0.434;exitDx=0;exitDy=0;exitPerimeter=0;entryX=-0.001;entryY=0.534;entryDx=0;entryDy=0;entryPerimeter=0;" edge="1" parent="In0TQUfnQW2vXfxKNVC4-221" source="In0TQUfnQW2vXfxKNVC4-175" target="In0TQUfnQW2vXfxKNVC4-187">
          <mxGeometry relative="1" as="geometry">
            <mxPoint x="654.27" y="538.1800000000003" as="sourcePoint" />
            <mxPoint x="790.5600000000001" y="498" as="targetPoint" />
            <Array as="points">
              <mxPoint x="1290" y="430" />
              <mxPoint x="1480" y="430" />
              <mxPoint x="1480" y="215" />
            </Array>
          </mxGeometry>
        </mxCell>
        <mxCell id="In0TQUfnQW2vXfxKNVC4-175" value="Mongo router" style="rounded=1;whiteSpace=wrap;html=1;container=0;" vertex="1" parent="In0TQUfnQW2vXfxKNVC4-221">
          <mxGeometry x="1130" y="390" width="160" height="80" as="geometry" />
        </mxCell>
        <mxCell id="In0TQUfnQW2vXfxKNVC4-176" style="edgeStyle=orthogonalEdgeStyle;rounded=0;orthogonalLoop=1;jettySize=auto;html=1;entryX=0.5;entryY=1;entryDx=0;entryDy=0;" edge="1" parent="In0TQUfnQW2vXfxKNVC4-221" source="In0TQUfnQW2vXfxKNVC4-178" target="In0TQUfnQW2vXfxKNVC4-175">
          <mxGeometry relative="1" as="geometry">
            <mxPoint x="1210" y="480" as="targetPoint" />
            <Array as="points">
              <mxPoint x="1210" y="490" />
              <mxPoint x="1210" y="490" />
            </Array>
          </mxGeometry>
        </mxCell>
        <mxCell id="In0TQUfnQW2vXfxKNVC4-177" style="edgeStyle=orthogonalEdgeStyle;rounded=0;orthogonalLoop=1;jettySize=auto;html=1;entryX=1;entryY=0.5;entryDx=0;entryDy=0;exitX=0;exitY=0.655;exitDx=0;exitDy=0;exitPerimeter=0;" edge="1" parent="In0TQUfnQW2vXfxKNVC4-221" source="In0TQUfnQW2vXfxKNVC4-208" target="In0TQUfnQW2vXfxKNVC4-185">
          <mxGeometry relative="1" as="geometry">
            <mxPoint x="680" y="520" as="sourcePoint" />
            <Array as="points">
              <mxPoint x="633" y="520" />
              <mxPoint x="633" y="680" />
            </Array>
          </mxGeometry>
        </mxCell>
        <mxCell id="In0TQUfnQW2vXfxKNVC4-178" value="&lt;span style=&quot;color: rgba(0, 0, 0, 0.85); font-family: Menlo, &amp;quot;Ubuntu Mono&amp;quot;, consolas, source-code-pro, monospace; font-size: 14px; text-align: start; white-space: pre; background-color: rgb(245, 245, 245);&quot;&gt;Сервер конфигурации&lt;/span&gt;&lt;div&gt;&lt;span style=&quot;color: rgba(0, 0, 0, 0.85); font-family: Menlo, &amp;quot;Ubuntu Mono&amp;quot;, consolas, source-code-pro, monospace; font-size: 14px; text-align: start; white-space: pre; background-color: rgb(245, 245, 245);&quot;&gt;(configSrv)&lt;/span&gt;&lt;/div&gt;" style="rounded=1;whiteSpace=wrap;html=1;" vertex="1" parent="In0TQUfnQW2vXfxKNVC4-221">
          <mxGeometry x="1120" y="680" width="160" height="60" as="geometry" />
        </mxCell>
        <mxCell id="In0TQUfnQW2vXfxKNVC4-179" style="edgeStyle=orthogonalEdgeStyle;rounded=0;orthogonalLoop=1;jettySize=auto;html=1;entryX=0.811;entryY=0.995;entryDx=0;entryDy=0;entryPerimeter=0;" edge="1" parent="In0TQUfnQW2vXfxKNVC4-221" source="In0TQUfnQW2vXfxKNVC4-197" target="In0TQUfnQW2vXfxKNVC4-178">
          <mxGeometry relative="1" as="geometry">
            <mxPoint x="860" y="960" as="targetPoint" />
            <Array as="points">
              <mxPoint x="1795" y="880" />
              <mxPoint x="1250" y="880" />
            </Array>
          </mxGeometry>
        </mxCell>
        <mxCell id="In0TQUfnQW2vXfxKNVC4-180" value="Redis" style="rhombus;whiteSpace=wrap;html=1;container=0;" vertex="1" parent="In0TQUfnQW2vXfxKNVC4-221">
          <mxGeometry x="445.56" y="124.09000000000015" width="140" height="170" as="geometry" />
        </mxCell>
        <mxCell id="In0TQUfnQW2vXfxKNVC4-181" style="edgeStyle=orthogonalEdgeStyle;rounded=0;orthogonalLoop=1;jettySize=auto;html=1;" edge="1" parent="In0TQUfnQW2vXfxKNVC4-221">
          <mxGeometry relative="1" as="geometry">
            <mxPoint x="570.2800000000004" y="476.8125" as="sourcePoint" />
            <mxPoint x="690" y="477" as="targetPoint" />
            <Array as="points">
              <mxPoint x="690" y="477" />
              <mxPoint x="690" y="477" />
            </Array>
          </mxGeometry>
        </mxCell>
        <mxCell id="In0TQUfnQW2vXfxKNVC4-182" value="APISIX Gateway" style="rounded=1;whiteSpace=wrap;html=1;" vertex="1" parent="In0TQUfnQW2vXfxKNVC4-221">
          <mxGeometry x="455.56" y="446.8100000000004" width="120" height="60" as="geometry" />
        </mxCell>
        <mxCell id="In0TQUfnQW2vXfxKNVC4-183" value="" style="edgeStyle=orthogonalEdgeStyle;rounded=0;orthogonalLoop=1;jettySize=auto;html=1;" edge="1" parent="In0TQUfnQW2vXfxKNVC4-221" source="In0TQUfnQW2vXfxKNVC4-184" target="In0TQUfnQW2vXfxKNVC4-185">
          <mxGeometry relative="1" as="geometry" />
        </mxCell>
        <mxCell id="In0TQUfnQW2vXfxKNVC4-184" value="consul_kv" style="rounded=0;whiteSpace=wrap;html=1;" vertex="1" parent="In0TQUfnQW2vXfxKNVC4-221">
          <mxGeometry x="475.56" y="489.53999999999996" width="80" height="30" as="geometry" />
        </mxCell>
        <mxCell id="In0TQUfnQW2vXfxKNVC4-185" value="Consul" style="rounded=1;whiteSpace=wrap;html=1;" vertex="1" parent="In0TQUfnQW2vXfxKNVC4-221">
          <mxGeometry x="455.56" y="650" width="120" height="60" as="geometry" />
        </mxCell>
        <mxCell id="In0TQUfnQW2vXfxKNVC4-186" value="" style="group" vertex="1" connectable="0" parent="In0TQUfnQW2vXfxKNVC4-221">
          <mxGeometry x="1650" y="40" width="280" height="326.82000000000016" as="geometry" />
        </mxCell>
        <mxCell id="In0TQUfnQW2vXfxKNVC4-187" value="" style="rounded=1;whiteSpace=wrap;html=1;fillColor=#DBCEE0;container=1;" vertex="1" parent="In0TQUfnQW2vXfxKNVC4-186">
          <mxGeometry width="280" height="326.82" as="geometry">
            <mxRectangle width="50" height="40" as="alternateBounds" />
          </mxGeometry>
        </mxCell>
        <mxCell id="In0TQUfnQW2vXfxKNVC4-188" value="Replica 1&lt;div&gt;(shard-1-1)&lt;/div&gt;" style="shape=cylinder3;whiteSpace=wrap;html=1;boundedLbl=1;backgroundOutline=1;size=15;" vertex="1" parent="In0TQUfnQW2vXfxKNVC4-186">
          <mxGeometry x="190.55999999999995" y="18.409999999999854" width="70" height="90" as="geometry" />
        </mxCell>
        <mxCell id="In0TQUfnQW2vXfxKNVC4-189" value="Replica 2&lt;div&gt;(shard-1-2)&lt;/div&gt;" style="shape=cylinder3;whiteSpace=wrap;html=1;boundedLbl=1;backgroundOutline=1;size=15;" vertex="1" parent="In0TQUfnQW2vXfxKNVC4-186">
          <mxGeometry x="190.55999999999995" y="118.40999999999985" width="70" height="90" as="geometry" />
        </mxCell>
        <mxCell id="In0TQUfnQW2vXfxKNVC4-190" value="Replica 3&lt;div&gt;(shard-1-3)&lt;/div&gt;" style="shape=cylinder3;whiteSpace=wrap;html=1;boundedLbl=1;backgroundOutline=1;size=15;" vertex="1" parent="In0TQUfnQW2vXfxKNVC4-186">
          <mxGeometry x="190.55999999999995" y="218.40999999999985" width="70" height="90" as="geometry" />
        </mxCell>
        <mxCell id="In0TQUfnQW2vXfxKNVC4-191" value="MongoDB&lt;br&gt;Shard 1&lt;br&gt;(shard-1)" style="shape=cylinder3;whiteSpace=wrap;html=1;boundedLbl=1;backgroundOutline=1;size=15;container=0;" vertex="1" parent="In0TQUfnQW2vXfxKNVC4-186">
          <mxGeometry x="40.559999999999945" y="118.40999999999985" width="70" height="100" as="geometry" />
        </mxCell>
        <mxCell id="In0TQUfnQW2vXfxKNVC4-192" style="edgeStyle=orthogonalEdgeStyle;rounded=0;orthogonalLoop=1;jettySize=auto;html=1;entryX=0.025;entryY=0.56;entryDx=0;entryDy=0;entryPerimeter=0;" edge="1" parent="In0TQUfnQW2vXfxKNVC4-186" source="In0TQUfnQW2vXfxKNVC4-191" target="In0TQUfnQW2vXfxKNVC4-189">
          <mxGeometry relative="1" as="geometry" />
        </mxCell>
        <mxCell id="In0TQUfnQW2vXfxKNVC4-193" style="edgeStyle=orthogonalEdgeStyle;rounded=0;orthogonalLoop=1;jettySize=auto;html=1;entryX=0;entryY=0.5;entryDx=0;entryDy=0;entryPerimeter=0;strokeColor=default;shadow=0;" edge="1" parent="In0TQUfnQW2vXfxKNVC4-186" source="In0TQUfnQW2vXfxKNVC4-191" target="In0TQUfnQW2vXfxKNVC4-188">
          <mxGeometry relative="1" as="geometry" />
        </mxCell>
        <mxCell id="In0TQUfnQW2vXfxKNVC4-194" style="edgeStyle=orthogonalEdgeStyle;rounded=0;orthogonalLoop=1;jettySize=auto;html=1;entryX=0.039;entryY=0.56;entryDx=0;entryDy=0;entryPerimeter=0;" edge="1" parent="In0TQUfnQW2vXfxKNVC4-186" source="In0TQUfnQW2vXfxKNVC4-191" target="In0TQUfnQW2vXfxKNVC4-190">
          <mxGeometry relative="1" as="geometry" />
        </mxCell>
        <mxCell id="In0TQUfnQW2vXfxKNVC4-195" value="Replica set 1" style="text;html=1;align=center;verticalAlign=middle;whiteSpace=wrap;rounded=0;" vertex="1" parent="In0TQUfnQW2vXfxKNVC4-186">
          <mxGeometry x="40.559999999999945" y="18.41000000000031" width="90" height="30" as="geometry" />
        </mxCell>
        <mxCell id="In0TQUfnQW2vXfxKNVC4-196" value="" style="group" vertex="1" connectable="0" parent="In0TQUfnQW2vXfxKNVC4-221">
          <mxGeometry x="1650" y="480" width="290" height="340" as="geometry" />
        </mxCell>
        <mxCell id="In0TQUfnQW2vXfxKNVC4-197" value="" style="rounded=1;whiteSpace=wrap;html=1;fillColor=#DBCEE0;container=0;" vertex="1" parent="In0TQUfnQW2vXfxKNVC4-196">
          <mxGeometry width="290" height="340" as="geometry" />
        </mxCell>
        <mxCell id="In0TQUfnQW2vXfxKNVC4-198" value="MongoDB&lt;div&gt;Shard 2&lt;/div&gt;&lt;div&gt;(shard-2)&lt;/div&gt;" style="shape=cylinder3;whiteSpace=wrap;html=1;boundedLbl=1;backgroundOutline=1;size=15;container=0;" vertex="1" parent="In0TQUfnQW2vXfxKNVC4-196">
          <mxGeometry x="20" y="130" width="70" height="110" as="geometry" />
        </mxCell>
        <mxCell id="In0TQUfnQW2vXfxKNVC4-199" value="Replica 1&lt;br&gt;(shard-2-1)" style="shape=cylinder3;whiteSpace=wrap;html=1;boundedLbl=1;backgroundOutline=1;size=15;" vertex="1" parent="In0TQUfnQW2vXfxKNVC4-196">
          <mxGeometry x="160" y="25" width="70" height="90" as="geometry" />
        </mxCell>
        <mxCell id="In0TQUfnQW2vXfxKNVC4-200" value="Replica 2&lt;div&gt;(shard-2-2)&lt;/div&gt;" style="shape=cylinder3;whiteSpace=wrap;html=1;boundedLbl=1;backgroundOutline=1;size=15;" vertex="1" parent="In0TQUfnQW2vXfxKNVC4-196">
          <mxGeometry x="160" y="125" width="70" height="90" as="geometry" />
        </mxCell>
        <mxCell id="In0TQUfnQW2vXfxKNVC4-201" value="Replica 3&lt;div&gt;(shard-2-3)&lt;/div&gt;" style="shape=cylinder3;whiteSpace=wrap;html=1;boundedLbl=1;backgroundOutline=1;size=15;" vertex="1" parent="In0TQUfnQW2vXfxKNVC4-196">
          <mxGeometry x="160" y="225" width="70" height="90" as="geometry" />
        </mxCell>
        <mxCell id="In0TQUfnQW2vXfxKNVC4-202" style="edgeStyle=orthogonalEdgeStyle;rounded=0;orthogonalLoop=1;jettySize=auto;html=1;entryX=0;entryY=0.5;entryDx=0;entryDy=0;entryPerimeter=0;" edge="1" parent="In0TQUfnQW2vXfxKNVC4-196" source="In0TQUfnQW2vXfxKNVC4-198" target="In0TQUfnQW2vXfxKNVC4-199">
          <mxGeometry relative="1" as="geometry" />
        </mxCell>
        <mxCell id="In0TQUfnQW2vXfxKNVC4-203" style="edgeStyle=orthogonalEdgeStyle;rounded=0;orthogonalLoop=1;jettySize=auto;html=1;entryX=0;entryY=0;entryDx=0;entryDy=60;entryPerimeter=0;" edge="1" parent="In0TQUfnQW2vXfxKNVC4-196" source="In0TQUfnQW2vXfxKNVC4-198" target="In0TQUfnQW2vXfxKNVC4-200">
          <mxGeometry relative="1" as="geometry" />
        </mxCell>
        <mxCell id="In0TQUfnQW2vXfxKNVC4-204" style="edgeStyle=orthogonalEdgeStyle;rounded=0;orthogonalLoop=1;jettySize=auto;html=1;entryX=0.005;entryY=0.619;entryDx=0;entryDy=0;entryPerimeter=0;" edge="1" parent="In0TQUfnQW2vXfxKNVC4-196" source="In0TQUfnQW2vXfxKNVC4-198" target="In0TQUfnQW2vXfxKNVC4-201">
          <mxGeometry relative="1" as="geometry" />
        </mxCell>
        <mxCell id="In0TQUfnQW2vXfxKNVC4-205" value="Replica set 2" style="text;html=1;align=center;verticalAlign=middle;whiteSpace=wrap;rounded=0;" vertex="1" parent="In0TQUfnQW2vXfxKNVC4-196">
          <mxGeometry x="20" y="25" width="90" height="30" as="geometry" />
        </mxCell>
        <mxCell id="In0TQUfnQW2vXfxKNVC4-206" value="" style="edgeStyle=orthogonalEdgeStyle;rounded=0;orthogonalLoop=1;jettySize=auto;html=1;exitX=0.509;exitY=1.003;exitDx=0;exitDy=0;exitPerimeter=0;" edge="1" parent="In0TQUfnQW2vXfxKNVC4-221" source="In0TQUfnQW2vXfxKNVC4-208" target="In0TQUfnQW2vXfxKNVC4-175">
          <mxGeometry relative="1" as="geometry">
            <mxPoint x="810" y="630" as="sourcePoint" />
            <Array as="points">
              <mxPoint x="812" y="430" />
            </Array>
          </mxGeometry>
        </mxCell>
        <mxCell id="In0TQUfnQW2vXfxKNVC4-207" value="Scaling API" style="text;html=1;align=center;verticalAlign=middle;whiteSpace=wrap;rounded=0;" vertex="1" parent="In0TQUfnQW2vXfxKNVC4-221">
          <mxGeometry x="690" y="330" width="80" height="30" as="geometry" />
        </mxCell>
        <mxCell id="In0TQUfnQW2vXfxKNVC4-208" value="" style="rounded=0;whiteSpace=wrap;html=1;fillColor=#f5f5f5;fontColor=#333333;strokeColor=#666666;" vertex="1" parent="In0TQUfnQW2vXfxKNVC4-221">
          <mxGeometry x="690" y="330" width="240" height="290" as="geometry" />
        </mxCell>
        <mxCell id="In0TQUfnQW2vXfxKNVC4-209" value="pymongo-api" style="rounded=1;whiteSpace=wrap;html=1;container=0;" vertex="1" parent="In0TQUfnQW2vXfxKNVC4-221">
          <mxGeometry x="729.9974074074074" y="507.80563636363604" width="164.44444444444446" height="76.36363636363636" as="geometry" />
        </mxCell>
        <mxCell id="In0TQUfnQW2vXfxKNVC4-210" value="pymongo-api" style="rounded=1;whiteSpace=wrap;html=1;container=0;" vertex="1" parent="In0TQUfnQW2vXfxKNVC4-221">
          <mxGeometry x="729.9974074074074" y="379.99563636363564" width="164.44444444444446" height="76.36363636363636" as="geometry" />
        </mxCell>
        <mxCell id="In0TQUfnQW2vXfxKNVC4-211" value="Scaling API" style="text;html=1;align=center;verticalAlign=middle;whiteSpace=wrap;rounded=0;" vertex="1" parent="In0TQUfnQW2vXfxKNVC4-221">
          <mxGeometry x="670" y="330" width="120" height="30" as="geometry" />
        </mxCell>
        <mxCell id="In0TQUfnQW2vXfxKNVC4-213" style="edgeStyle=orthogonalEdgeStyle;rounded=0;orthogonalLoop=1;jettySize=auto;html=1;" edge="1" parent="In0TQUfnQW2vXfxKNVC4-221" source="In0TQUfnQW2vXfxKNVC4-212" target="In0TQUfnQW2vXfxKNVC4-172">
          <mxGeometry relative="1" as="geometry" />
        </mxCell>
        <mxCell id="In0TQUfnQW2vXfxKNVC4-212" value="Site" style="rounded=1;whiteSpace=wrap;html=1;" vertex="1" parent="In0TQUfnQW2vXfxKNVC4-221">
          <mxGeometry x="40" y="449.8599999999997" width="120" height="60" as="geometry" />
        </mxCell>
        <mxCell id="In0TQUfnQW2vXfxKNVC4-219" value="" style="edgeStyle=orthogonalEdgeStyle;rounded=0;orthogonalLoop=1;jettySize=auto;html=1;" edge="1" parent="In0TQUfnQW2vXfxKNVC4-221" source="In0TQUfnQW2vXfxKNVC4-214" target="In0TQUfnQW2vXfxKNVC4-215">
          <mxGeometry relative="1" as="geometry" />
        </mxCell>
        <mxCell id="In0TQUfnQW2vXfxKNVC4-214" value="EdgeCDN" style="rounded=1;whiteSpace=wrap;html=1;" vertex="1" parent="In0TQUfnQW2vXfxKNVC4-221">
          <mxGeometry x="212.22" y="360" width="120" height="60" as="geometry" />
        </mxCell>
        <mxCell id="In0TQUfnQW2vXfxKNVC4-215" value="CDN" style="rounded=1;whiteSpace=wrap;html=1;" vertex="1" parent="In0TQUfnQW2vXfxKNVC4-221">
          <mxGeometry x="212.22" y="260" width="120" height="60" as="geometry" />
        </mxCell>
        <mxCell id="In0TQUfnQW2vXfxKNVC4-220" value="&lt;font style=&quot;forced-color-adjust: none; font-size: 16px;&quot;&gt;&lt;b style=&quot;forced-color-adjust: none;&quot;&gt;6) CDN State&lt;/b&gt;&lt;/font&gt;" style="text;html=1;align=center;verticalAlign=middle;whiteSpace=wrap;rounded=0;container=0;" vertex="1" parent="In0TQUfnQW2vXfxKNVC4-221">
          <mxGeometry x="30" y="30.000909090908863" width="150" height="27.272727272727273" as="geometry" />
        </mxCell>
        <mxCell id="In0TQUfnQW2vXfxKNVC4-222" value="" style="group" vertex="1" connectable="0" parent="1">
          <mxGeometry x="20" y="2820" width="1850" height="1200" as="geometry" />
        </mxCell>
        <mxCell id="In0TQUfnQW2vXfxKNVC4-223" value="" style="group" vertex="1" connectable="0" parent="In0TQUfnQW2vXfxKNVC4-222">
          <mxGeometry x="-20" y="-100" width="1850" height="960" as="geometry" />
        </mxCell>
        <mxCell id="In0TQUfnQW2vXfxKNVC4-77" value="" style="rounded=0;whiteSpace=wrap;html=1;container=0;" vertex="1" parent="In0TQUfnQW2vXfxKNVC4-223">
          <mxGeometry width="1850" height="960" as="geometry" />
        </mxCell>
        <mxCell id="In0TQUfnQW2vXfxKNVC4-79" style="edgeStyle=orthogonalEdgeStyle;rounded=0;orthogonalLoop=1;jettySize=auto;html=1;entryX=0.342;entryY=1.002;entryDx=0;entryDy=0;entryPerimeter=0;" edge="1" parent="In0TQUfnQW2vXfxKNVC4-223" source="In0TQUfnQW2vXfxKNVC4-80" target="In0TQUfnQW2vXfxKNVC4-94">
          <mxGeometry relative="1" as="geometry">
            <Array as="points">
              <mxPoint x="1580" y="497" />
              <mxPoint x="1800" y="497" />
              <mxPoint x="1800" y="910" />
              <mxPoint x="965" y="910" />
            </Array>
          </mxGeometry>
        </mxCell>
        <mxCell id="In0TQUfnQW2vXfxKNVC4-81" style="edgeStyle=orthogonalEdgeStyle;rounded=0;orthogonalLoop=1;jettySize=auto;html=1;entryX=0;entryY=0.551;entryDx=0;entryDy=0;entryPerimeter=0;" edge="1" parent="In0TQUfnQW2vXfxKNVC4-223" source="In0TQUfnQW2vXfxKNVC4-84" target="In0TQUfnQW2vXfxKNVC4-115">
          <mxGeometry relative="1" as="geometry">
            <Array as="points" />
          </mxGeometry>
        </mxCell>
        <mxCell id="In0TQUfnQW2vXfxKNVC4-82" value="&lt;b style=&quot;font-size: 16px;&quot;&gt;5) Gateway state&lt;/b&gt;" style="text;html=1;align=center;verticalAlign=middle;whiteSpace=wrap;rounded=0;container=0;" vertex="1" parent="In0TQUfnQW2vXfxKNVC4-223">
          <mxGeometry x="30.001851851851853" y="30.001272727272408" width="205.55555555555557" height="38.18181818181818" as="geometry" />
        </mxCell>
        <mxCell id="In0TQUfnQW2vXfxKNVC4-83" style="edgeStyle=orthogonalEdgeStyle;rounded=0;orthogonalLoop=1;jettySize=auto;html=1;entryX=0.5;entryY=1;entryDx=0;entryDy=0;exitX=1;exitY=0.5;exitDx=0;exitDy=0;entryPerimeter=0;" edge="1" parent="In0TQUfnQW2vXfxKNVC4-223" source="In0TQUfnQW2vXfxKNVC4-115" target="In0TQUfnQW2vXfxKNVC4-107">
          <mxGeometry relative="1" as="geometry">
            <Array as="points">
              <mxPoint x="306" y="477" />
              <mxPoint x="306" y="310" />
              <mxPoint x="306" y="310" />
            </Array>
          </mxGeometry>
        </mxCell>
        <mxCell id="In0TQUfnQW2vXfxKNVC4-84" value="Site/NGINX" style="rounded=1;whiteSpace=wrap;html=1;container=0;" vertex="1" parent="In0TQUfnQW2vXfxKNVC4-223">
          <mxGeometry x="50" y="450.9899999999998" width="124.44" height="56.82" as="geometry" />
        </mxCell>
        <mxCell id="In0TQUfnQW2vXfxKNVC4-88" style="edgeStyle=orthogonalEdgeStyle;rounded=0;orthogonalLoop=1;jettySize=auto;html=1;exitX=1;exitY=0.5;exitDx=0;exitDy=0;" edge="1" parent="In0TQUfnQW2vXfxKNVC4-223" target="In0TQUfnQW2vXfxKNVC4-78" source="In0TQUfnQW2vXfxKNVC4-92">
          <mxGeometry relative="1" as="geometry">
            <mxPoint x="465.71999999999895" y="745.6000000000004" as="sourcePoint" />
            <mxPoint x="575.5600000000001" y="933" as="targetPoint" />
            <Array as="points">
              <mxPoint x="1270" y="430" />
              <mxPoint x="1270" y="630" />
            </Array>
          </mxGeometry>
        </mxCell>
        <mxCell id="In0TQUfnQW2vXfxKNVC4-89" style="edgeStyle=orthogonalEdgeStyle;rounded=0;orthogonalLoop=1;jettySize=auto;html=1;exitX=0.997;exitY=0.434;exitDx=0;exitDy=0;exitPerimeter=0;entryX=-0.001;entryY=0.534;entryDx=0;entryDy=0;entryPerimeter=0;" edge="1" parent="In0TQUfnQW2vXfxKNVC4-223" source="In0TQUfnQW2vXfxKNVC4-92" target="In0TQUfnQW2vXfxKNVC4-80">
          <mxGeometry relative="1" as="geometry">
            <mxPoint x="444.27000000000004" y="538.1799999999998" as="sourcePoint" />
            <mxPoint x="580.5600000000001" y="498" as="targetPoint" />
            <Array as="points">
              <mxPoint x="1080" y="430" />
              <mxPoint x="1270" y="430" />
              <mxPoint x="1270" y="215" />
            </Array>
          </mxGeometry>
        </mxCell>
        <mxCell id="In0TQUfnQW2vXfxKNVC4-92" value="Mongo router" style="rounded=1;whiteSpace=wrap;html=1;container=0;" vertex="1" parent="In0TQUfnQW2vXfxKNVC4-223">
          <mxGeometry x="920" y="390" width="160" height="80" as="geometry" />
        </mxCell>
        <mxCell id="In0TQUfnQW2vXfxKNVC4-93" style="edgeStyle=orthogonalEdgeStyle;rounded=0;orthogonalLoop=1;jettySize=auto;html=1;entryX=0.5;entryY=1;entryDx=0;entryDy=0;" edge="1" parent="In0TQUfnQW2vXfxKNVC4-223" source="In0TQUfnQW2vXfxKNVC4-94" target="In0TQUfnQW2vXfxKNVC4-92">
          <mxGeometry relative="1" as="geometry">
            <mxPoint x="1000" y="480" as="targetPoint" />
            <Array as="points">
              <mxPoint x="1000" y="490" />
              <mxPoint x="1000" y="490" />
            </Array>
          </mxGeometry>
        </mxCell>
        <mxCell id="In0TQUfnQW2vXfxKNVC4-128" style="edgeStyle=orthogonalEdgeStyle;rounded=0;orthogonalLoop=1;jettySize=auto;html=1;entryX=1;entryY=0.5;entryDx=0;entryDy=0;exitX=0;exitY=0.655;exitDx=0;exitDy=0;exitPerimeter=0;" edge="1" parent="In0TQUfnQW2vXfxKNVC4-223" source="In0TQUfnQW2vXfxKNVC4-163" target="In0TQUfnQW2vXfxKNVC4-117">
          <mxGeometry relative="1" as="geometry">
            <mxPoint x="470" y="520" as="sourcePoint" />
            <Array as="points">
              <mxPoint x="423" y="520" />
              <mxPoint x="423" y="680" />
            </Array>
          </mxGeometry>
        </mxCell>
        <mxCell id="In0TQUfnQW2vXfxKNVC4-94" value="&lt;span style=&quot;color: rgba(0, 0, 0, 0.85); font-family: Menlo, &amp;quot;Ubuntu Mono&amp;quot;, consolas, source-code-pro, monospace; font-size: 14px; text-align: start; white-space: pre; background-color: rgb(245, 245, 245);&quot;&gt;Сервер конфигурации&lt;/span&gt;&lt;div&gt;&lt;span style=&quot;color: rgba(0, 0, 0, 0.85); font-family: Menlo, &amp;quot;Ubuntu Mono&amp;quot;, consolas, source-code-pro, monospace; font-size: 14px; text-align: start; white-space: pre; background-color: rgb(245, 245, 245);&quot;&gt;(configSrv)&lt;/span&gt;&lt;/div&gt;" style="rounded=1;whiteSpace=wrap;html=1;" vertex="1" parent="In0TQUfnQW2vXfxKNVC4-223">
          <mxGeometry x="910" y="680" width="160" height="60" as="geometry" />
        </mxCell>
        <mxCell id="In0TQUfnQW2vXfxKNVC4-106" style="edgeStyle=orthogonalEdgeStyle;rounded=0;orthogonalLoop=1;jettySize=auto;html=1;entryX=0.811;entryY=0.995;entryDx=0;entryDy=0;entryPerimeter=0;" edge="1" parent="In0TQUfnQW2vXfxKNVC4-223" source="In0TQUfnQW2vXfxKNVC4-78" target="In0TQUfnQW2vXfxKNVC4-94">
          <mxGeometry relative="1" as="geometry">
            <mxPoint x="650" y="960" as="targetPoint" />
            <Array as="points">
              <mxPoint x="1585" y="860" />
              <mxPoint x="1040" y="860" />
            </Array>
          </mxGeometry>
        </mxCell>
        <mxCell id="In0TQUfnQW2vXfxKNVC4-107" value="Redis" style="rhombus;whiteSpace=wrap;html=1;container=0;" vertex="1" parent="In0TQUfnQW2vXfxKNVC4-223">
          <mxGeometry x="235.56" y="124.0900000000006" width="140" height="170" as="geometry" />
        </mxCell>
        <mxCell id="In0TQUfnQW2vXfxKNVC4-125" style="edgeStyle=orthogonalEdgeStyle;rounded=0;orthogonalLoop=1;jettySize=auto;html=1;" edge="1" parent="In0TQUfnQW2vXfxKNVC4-223">
          <mxGeometry relative="1" as="geometry">
            <mxPoint x="360.2800000000004" y="476.81249999999955" as="sourcePoint" />
            <mxPoint x="480" y="477" as="targetPoint" />
            <Array as="points">
              <mxPoint x="480" y="477" />
              <mxPoint x="480" y="477" />
            </Array>
          </mxGeometry>
        </mxCell>
        <mxCell id="In0TQUfnQW2vXfxKNVC4-115" value="APISIX Gateway" style="rounded=1;whiteSpace=wrap;html=1;" vertex="1" parent="In0TQUfnQW2vXfxKNVC4-223">
          <mxGeometry x="245.56" y="446.8100000000004" width="120" height="60" as="geometry" />
        </mxCell>
        <mxCell id="In0TQUfnQW2vXfxKNVC4-124" value="" style="edgeStyle=orthogonalEdgeStyle;rounded=0;orthogonalLoop=1;jettySize=auto;html=1;" edge="1" parent="In0TQUfnQW2vXfxKNVC4-223" source="In0TQUfnQW2vXfxKNVC4-116" target="In0TQUfnQW2vXfxKNVC4-117">
          <mxGeometry relative="1" as="geometry" />
        </mxCell>
        <mxCell id="In0TQUfnQW2vXfxKNVC4-116" value="consul_kv" style="rounded=0;whiteSpace=wrap;html=1;" vertex="1" parent="In0TQUfnQW2vXfxKNVC4-223">
          <mxGeometry x="265.56" y="489.53999999999996" width="80" height="30" as="geometry" />
        </mxCell>
        <mxCell id="In0TQUfnQW2vXfxKNVC4-117" value="Consul" style="rounded=1;whiteSpace=wrap;html=1;" vertex="1" parent="In0TQUfnQW2vXfxKNVC4-223">
          <mxGeometry x="245.56" y="650" width="120" height="60" as="geometry" />
        </mxCell>
        <mxCell id="In0TQUfnQW2vXfxKNVC4-118" value="" style="group" vertex="1" connectable="0" parent="In0TQUfnQW2vXfxKNVC4-223">
          <mxGeometry x="1440" y="40" width="280" height="326.82000000000016" as="geometry" />
        </mxCell>
        <mxCell id="In0TQUfnQW2vXfxKNVC4-80" value="" style="rounded=1;whiteSpace=wrap;html=1;fillColor=#DBCEE0;container=1;" vertex="1" parent="In0TQUfnQW2vXfxKNVC4-118">
          <mxGeometry width="280" height="326.82" as="geometry">
            <mxRectangle width="50" height="40" as="alternateBounds" />
          </mxGeometry>
        </mxCell>
        <mxCell id="In0TQUfnQW2vXfxKNVC4-85" value="Replica 1&lt;div&gt;(shard-1-1)&lt;/div&gt;" style="shape=cylinder3;whiteSpace=wrap;html=1;boundedLbl=1;backgroundOutline=1;size=15;" vertex="1" parent="In0TQUfnQW2vXfxKNVC4-118">
          <mxGeometry x="190.55999999999995" y="18.409999999999854" width="70" height="90" as="geometry" />
        </mxCell>
        <mxCell id="In0TQUfnQW2vXfxKNVC4-86" value="Replica 2&lt;div&gt;(shard-1-2)&lt;/div&gt;" style="shape=cylinder3;whiteSpace=wrap;html=1;boundedLbl=1;backgroundOutline=1;size=15;" vertex="1" parent="In0TQUfnQW2vXfxKNVC4-118">
          <mxGeometry x="190.55999999999995" y="118.40999999999985" width="70" height="90" as="geometry" />
        </mxCell>
        <mxCell id="In0TQUfnQW2vXfxKNVC4-87" value="Replica 3&lt;div&gt;(shard-1-3)&lt;/div&gt;" style="shape=cylinder3;whiteSpace=wrap;html=1;boundedLbl=1;backgroundOutline=1;size=15;" vertex="1" parent="In0TQUfnQW2vXfxKNVC4-118">
          <mxGeometry x="190.55999999999995" y="218.40999999999985" width="70" height="90" as="geometry" />
        </mxCell>
        <mxCell id="In0TQUfnQW2vXfxKNVC4-91" value="MongoDB&lt;br&gt;Shard 1&lt;br&gt;(shard-1)" style="shape=cylinder3;whiteSpace=wrap;html=1;boundedLbl=1;backgroundOutline=1;size=15;container=0;" vertex="1" parent="In0TQUfnQW2vXfxKNVC4-118">
          <mxGeometry x="40.559999999999945" y="118.40999999999985" width="70" height="100" as="geometry" />
        </mxCell>
        <mxCell id="In0TQUfnQW2vXfxKNVC4-98" style="edgeStyle=orthogonalEdgeStyle;rounded=0;orthogonalLoop=1;jettySize=auto;html=1;entryX=0.025;entryY=0.56;entryDx=0;entryDy=0;entryPerimeter=0;" edge="1" parent="In0TQUfnQW2vXfxKNVC4-118" source="In0TQUfnQW2vXfxKNVC4-91" target="In0TQUfnQW2vXfxKNVC4-86">
          <mxGeometry relative="1" as="geometry" />
        </mxCell>
        <mxCell id="In0TQUfnQW2vXfxKNVC4-99" style="edgeStyle=orthogonalEdgeStyle;rounded=0;orthogonalLoop=1;jettySize=auto;html=1;entryX=0;entryY=0.5;entryDx=0;entryDy=0;entryPerimeter=0;strokeColor=default;shadow=0;" edge="1" parent="In0TQUfnQW2vXfxKNVC4-118" source="In0TQUfnQW2vXfxKNVC4-91" target="In0TQUfnQW2vXfxKNVC4-85">
          <mxGeometry relative="1" as="geometry" />
        </mxCell>
        <mxCell id="In0TQUfnQW2vXfxKNVC4-100" style="edgeStyle=orthogonalEdgeStyle;rounded=0;orthogonalLoop=1;jettySize=auto;html=1;entryX=0.039;entryY=0.56;entryDx=0;entryDy=0;entryPerimeter=0;" edge="1" parent="In0TQUfnQW2vXfxKNVC4-118" source="In0TQUfnQW2vXfxKNVC4-91" target="In0TQUfnQW2vXfxKNVC4-87">
          <mxGeometry relative="1" as="geometry" />
        </mxCell>
        <mxCell id="In0TQUfnQW2vXfxKNVC4-104" value="Replica set 1" style="text;html=1;align=center;verticalAlign=middle;whiteSpace=wrap;rounded=0;" vertex="1" parent="In0TQUfnQW2vXfxKNVC4-118">
          <mxGeometry x="40.559999999999945" y="18.41000000000031" width="90" height="30" as="geometry" />
        </mxCell>
        <mxCell id="In0TQUfnQW2vXfxKNVC4-119" value="" style="group" vertex="1" connectable="0" parent="In0TQUfnQW2vXfxKNVC4-223">
          <mxGeometry x="1440" y="480" width="290" height="340" as="geometry" />
        </mxCell>
        <mxCell id="In0TQUfnQW2vXfxKNVC4-78" value="" style="rounded=1;whiteSpace=wrap;html=1;fillColor=#DBCEE0;container=0;" vertex="1" parent="In0TQUfnQW2vXfxKNVC4-119">
          <mxGeometry width="290" height="340" as="geometry" />
        </mxCell>
        <mxCell id="In0TQUfnQW2vXfxKNVC4-90" value="MongoDB&lt;div&gt;Shard 2&lt;/div&gt;&lt;div&gt;(shard-2)&lt;/div&gt;" style="shape=cylinder3;whiteSpace=wrap;html=1;boundedLbl=1;backgroundOutline=1;size=15;container=0;" vertex="1" parent="In0TQUfnQW2vXfxKNVC4-119">
          <mxGeometry x="20" y="130" width="70" height="110" as="geometry" />
        </mxCell>
        <mxCell id="In0TQUfnQW2vXfxKNVC4-95" value="Replica 1&lt;br&gt;(shard-2-1)" style="shape=cylinder3;whiteSpace=wrap;html=1;boundedLbl=1;backgroundOutline=1;size=15;" vertex="1" parent="In0TQUfnQW2vXfxKNVC4-119">
          <mxGeometry x="160" y="25" width="70" height="90" as="geometry" />
        </mxCell>
        <mxCell id="In0TQUfnQW2vXfxKNVC4-96" value="Replica 2&lt;div&gt;(shard-2-2)&lt;/div&gt;" style="shape=cylinder3;whiteSpace=wrap;html=1;boundedLbl=1;backgroundOutline=1;size=15;" vertex="1" parent="In0TQUfnQW2vXfxKNVC4-119">
          <mxGeometry x="160" y="125" width="70" height="90" as="geometry" />
        </mxCell>
        <mxCell id="In0TQUfnQW2vXfxKNVC4-97" value="Replica 3&lt;div&gt;(shard-2-3)&lt;/div&gt;" style="shape=cylinder3;whiteSpace=wrap;html=1;boundedLbl=1;backgroundOutline=1;size=15;" vertex="1" parent="In0TQUfnQW2vXfxKNVC4-119">
          <mxGeometry x="160" y="225" width="70" height="90" as="geometry" />
        </mxCell>
        <mxCell id="In0TQUfnQW2vXfxKNVC4-101" style="edgeStyle=orthogonalEdgeStyle;rounded=0;orthogonalLoop=1;jettySize=auto;html=1;entryX=0;entryY=0.5;entryDx=0;entryDy=0;entryPerimeter=0;" edge="1" parent="In0TQUfnQW2vXfxKNVC4-119" source="In0TQUfnQW2vXfxKNVC4-90" target="In0TQUfnQW2vXfxKNVC4-95">
          <mxGeometry relative="1" as="geometry" />
        </mxCell>
        <mxCell id="In0TQUfnQW2vXfxKNVC4-102" style="edgeStyle=orthogonalEdgeStyle;rounded=0;orthogonalLoop=1;jettySize=auto;html=1;entryX=0;entryY=0;entryDx=0;entryDy=60;entryPerimeter=0;" edge="1" parent="In0TQUfnQW2vXfxKNVC4-119" source="In0TQUfnQW2vXfxKNVC4-90" target="In0TQUfnQW2vXfxKNVC4-96">
          <mxGeometry relative="1" as="geometry" />
        </mxCell>
        <mxCell id="In0TQUfnQW2vXfxKNVC4-103" style="edgeStyle=orthogonalEdgeStyle;rounded=0;orthogonalLoop=1;jettySize=auto;html=1;entryX=0.005;entryY=0.619;entryDx=0;entryDy=0;entryPerimeter=0;" edge="1" parent="In0TQUfnQW2vXfxKNVC4-119" source="In0TQUfnQW2vXfxKNVC4-90" target="In0TQUfnQW2vXfxKNVC4-97">
          <mxGeometry relative="1" as="geometry" />
        </mxCell>
        <mxCell id="In0TQUfnQW2vXfxKNVC4-105" value="Replica set 2" style="text;html=1;align=center;verticalAlign=middle;whiteSpace=wrap;rounded=0;" vertex="1" parent="In0TQUfnQW2vXfxKNVC4-119">
          <mxGeometry x="20" y="25" width="90" height="30" as="geometry" />
        </mxCell>
        <mxCell id="In0TQUfnQW2vXfxKNVC4-127" value="" style="edgeStyle=orthogonalEdgeStyle;rounded=0;orthogonalLoop=1;jettySize=auto;html=1;exitX=0.509;exitY=1.003;exitDx=0;exitDy=0;exitPerimeter=0;" edge="1" parent="In0TQUfnQW2vXfxKNVC4-223" source="In0TQUfnQW2vXfxKNVC4-163" target="In0TQUfnQW2vXfxKNVC4-92">
          <mxGeometry relative="1" as="geometry">
            <mxPoint x="600" y="630" as="sourcePoint" />
            <Array as="points">
              <mxPoint x="602" y="430" />
            </Array>
          </mxGeometry>
        </mxCell>
        <mxCell id="In0TQUfnQW2vXfxKNVC4-164" value="Scaling API" style="text;html=1;align=center;verticalAlign=middle;whiteSpace=wrap;rounded=0;" vertex="1" parent="In0TQUfnQW2vXfxKNVC4-223">
          <mxGeometry x="480" y="330" width="80" height="30" as="geometry" />
        </mxCell>
        <mxCell id="In0TQUfnQW2vXfxKNVC4-163" value="" style="rounded=0;whiteSpace=wrap;html=1;fillColor=#f5f5f5;fontColor=#333333;strokeColor=#666666;" vertex="1" parent="In0TQUfnQW2vXfxKNVC4-223">
          <mxGeometry x="480" y="330" width="240" height="290" as="geometry" />
        </mxCell>
        <mxCell id="In0TQUfnQW2vXfxKNVC4-126" value="pymongo-api" style="rounded=1;whiteSpace=wrap;html=1;container=0;" vertex="1" parent="In0TQUfnQW2vXfxKNVC4-223">
          <mxGeometry x="519.9974074074074" y="507.80563636363604" width="164.44444444444446" height="76.36363636363636" as="geometry" />
        </mxCell>
        <mxCell id="In0TQUfnQW2vXfxKNVC4-129" value="pymongo-api" style="rounded=1;whiteSpace=wrap;html=1;container=0;" vertex="1" parent="In0TQUfnQW2vXfxKNVC4-223">
          <mxGeometry x="519.9974074074074" y="379.9956363636361" width="164.44444444444446" height="76.36363636363636" as="geometry" />
        </mxCell>
        <mxCell id="In0TQUfnQW2vXfxKNVC4-166" value="Scaling API" style="text;html=1;align=center;verticalAlign=middle;whiteSpace=wrap;rounded=0;" vertex="1" parent="In0TQUfnQW2vXfxKNVC4-223">
          <mxGeometry x="460" y="330" width="120" height="30" as="geometry" />
        </mxCell>
      </root>
    </mxGraphModel>
  </diagram>
</mxfile>
